<svg width="960" height="200" viewBox="0 0 960 200" fill="none" xmlns="http://www.w3.org/2000/svg">
<g clip-path="url(#clip0_106_31)">
<path d="M0 62.0001L13.3 65.7001C26.7 69.3001 53.3 76.7001 80 80.2001C106.7 83.7001 133.3 83.3001 160 81.8001C186.7 80.3001 213.3 77.7001 240 73.5001C266.7 69.3001 293.3 63.7001 320 58.5001C346.7 53.3001 373.3 48.7001 400 45.7001C426.7 42.7001 453.3 41.3001 480 41.8001C506.7 42.3001 533.3 44.7001 560 48.8001C586.7 53.0001 613.3 59.0001 640 59.0001C666.7 59.0001 693.3 53.0001 720 59.3001C746.7 65.7001 773.3 84.3001 800 85.3001C826.7 86.3001 853.3 69.7001 880 59.8001C906.7 50.0001 933.3 47.0001 946.7 45.5001L960 44.0001V201H946.7C933.3 201 906.7 201 880 201C853.3 201 826.7 201 800 201C773.3 201 746.7 201 720 201C693.3 201 666.7 201 640 201C613.3 201 586.7 201 560 201C533.3 201 506.7 201 480 201C453.3 201 426.7 201 400 201C373.3 201 346.7 201 320 201C293.3 201 266.7 201 240 201C213.3 201 186.7 201 160 201C133.3 201 106.7 201 80 201C53.3 201 26.7 201 13.3 201H0V62.0001Z" fill="#FFBD59"/>
<path d="M0 110L13.3 110.7C26.7 111.3 53.3 112.7 80 110.8C106.7 109 133.3 104 160 107.8C186.7 111.7 213.3 124.3 240 121.5C266.7 118.7 293.3 100.3 320 97.5001C346.7 94.7001 373.3 107.3 400 110.5C426.7 113.7 453.3 107.3 480 103.2C506.7 99.0001 533.3 97 560 94.7C586.7 92.3 613.3 89.7001 640 90.3001C666.7 91.0001 693.3 95.0001 720 103.8C746.7 112.7 773.3 126.3 800 131.2C826.7 136 853.3 132 880 123.8C906.7 115.7 933.3 103.3 946.7 97.2L960 91.0001V201H946.7C933.3 201 906.7 201 880 201C853.3 201 826.7 201 800 201C773.3 201 746.7 201 720 201C693.3 201 666.7 201 640 201C613.3 201 586.7 201 560 201C533.3 201 506.7 201 480 201C453.3 201 426.7 201 400 201C373.3 201 346.7 201 320 201C293.3 201 266.7 201 240 201C213.3 201 186.7 201 160 201C133.3 201 106.7 201 80 201C53.3 201 26.7 201 13.3 201H0V110Z" fill="#806136"/>
<path d="M0 131L13.3 137.5C26.7 144 53.3 157 80 162.8C106.7 168.7 133.3 167.3 160 164.5C186.7 161.7 213.3 157.3 240 156.7C266.7 156 293.3 159 320 160.2C346.7 161.3 373.3 160.7 400 158C426.7 155.3 453.3 150.7 480 146.5C506.7 142.3 533.3 138.7 560 142.7C586.7 146.7 613.3 158.3 640 161.3C666.7 164.3 693.3 158.7 720 159.3C746.7 160 773.3 167 800 166.7C826.7 166.3 853.3 158.7 880 150.5C906.7 142.3 933.3 133.7 946.7 129.3L960 125V201H946.7C933.3 201 906.7 201 880 201C853.3 201 826.7 201 800 201C773.3 201 746.7 201 720 201C693.3 201 666.7 201 640 201C613.3 201 586.7 201 560 201C533.3 201 506.7 201 480 201C453.3 201 426.7 201 400 201C373.3 201 346.7 201 320 201C293.3 201 266.7 201 240 201C213.3 201 186.7 201 160 201C133.3 201 106.7 201 80 201C53.3 201 26.7 201 13.3 201H0V131Z" fill="#EBEEF0"/>
</g>
<defs>
<clipPath id="clip0_106_31">
<rect width="960" height="200" fill="white"/>
</clipPath>
</defs>
</svg>
