<svg id="visual" viewBox="0 0 900 185" width="900" height="185" xmlns="http://www.w3.org/2000/svg" xmlns:xlink="http://www.w3.org/1999/xlink" version="1.1"><path d="M0 10L50 11.3C100 12.7 200 15.3 300 16.3C400 17.3 500 16.7 600 19C700 21.3 800 26.7 850 29.3L900 32L900 0L850 0C800 0 700 0 600 0C500 0 400 0 300 0C200 0 100 0 50 0L0 0Z" fill="#0f0f0f"></path><path d="M0 38L50 38.7C100 39.3 200 40.7 300 43.2C400 45.7 500 49.3 600 52.3C700 55.3 800 57.7 850 58.8L900 60L900 30L850 27.3C800 24.7 700 19.3 600 17C500 14.7 400 15.3 300 14.3C200 13.3 100 10.7 50 9.3L0 8Z" fill="#1c1c1c"></path><path d="M0 53L50 57C100 61 200 69 300 72.7C400 76.3 500 75.7 600 77.2C700 78.7 800 82.3 850 84.2L900 86L900 58L850 56.8C800 55.7 700 53.3 600 50.3C500 47.3 400 43.7 300 41.2C200 38.7 100 37.3 50 36.7L0 36Z" fill="#363636"></path><path d="M0 127L50 125.7C100 124.3 200 121.7 300 120.2C400 118.7 500 118.3 600 126.5C700 134.7 800 151.3 850 159.7L900 168L900 84L850 82.2C800 80.3 700 76.7 600 75.2C500 73.7 400 74.3 300 70.7C200 67 100 59 50 55L0 51Z" fill="#1c1c1c"></path><path d="M0 186L50 186C100 186 200 186 300 186C400 186 500 186 600 186C700 186 800 186 850 186L900 186L900 166L850 157.7C800 149.3 700 132.7 600 124.5C500 116.3 400 116.7 300 118.2C200 119.7 100 122.3 50 123.7L0 125Z" fill="#0f0f0f"></path></svg>