<svg id="visual" viewBox="0 0 960 540" width="960" height="540" xmlns="http://www.w3.org/2000/svg" xmlns:xlink="http://www.w3.org/1999/xlink" version="1.1"><rect x="0" y="0" width="960" height="540" fill="#131313"></rect><defs><linearGradient id="grad1_0" x1="43.8%" y1="0%" x2="100%" y2="100%"><stop offset="14.444444444444446%" stop-color="#ffbd59" stop-opacity="1"></stop><stop offset="85.55555555555554%" stop-color="#ffbd59" stop-opacity="1"></stop></linearGradient></defs><defs><linearGradient id="grad1_1" x1="43.8%" y1="0%" x2="100%" y2="100%"><stop offset="14.444444444444446%" stop-color="#ffbd59" stop-opacity="1"></stop><stop offset="85.55555555555554%" stop-color="#d9a24f" stop-opacity="1"></stop></linearGradient></defs><defs><linearGradient id="grad1_2" x1="43.8%" y1="0%" x2="100%" y2="100%"><stop offset="14.444444444444446%" stop-color="#b48745" stop-opacity="1"></stop><stop offset="85.55555555555554%" stop-color="#d9a24f" stop-opacity="1"></stop></linearGradient></defs><defs><linearGradient id="grad1_3" x1="43.8%" y1="0%" x2="100%" y2="100%"><stop offset="14.444444444444446%" stop-color="#b48745" stop-opacity="1"></stop><stop offset="85.55555555555554%" stop-color="#916e3b" stop-opacity="1"></stop></linearGradient></defs><defs><linearGradient id="grad1_4" x1="43.8%" y1="0%" x2="100%" y2="100%"><stop offset="14.444444444444446%" stop-color="#6f5531" stop-opacity="1"></stop><stop offset="85.55555555555554%" stop-color="#916e3b" stop-opacity="1"></stop></linearGradient></defs><defs><linearGradient id="grad1_5" x1="43.8%" y1="0%" x2="100%" y2="100%"><stop offset="14.444444444444446%" stop-color="#6f5531" stop-opacity="1"></stop><stop offset="85.55555555555554%" stop-color="#4f3e27" stop-opacity="1"></stop></linearGradient></defs><defs><linearGradient id="grad1_6" x1="43.8%" y1="0%" x2="100%" y2="100%"><stop offset="14.444444444444446%" stop-color="#30281d" stop-opacity="1"></stop><stop offset="85.55555555555554%" stop-color="#4f3e27" stop-opacity="1"></stop></linearGradient></defs><defs><linearGradient id="grad1_7" x1="43.8%" y1="0%" x2="100%" y2="100%"><stop offset="14.444444444444446%" stop-color="#30281d" stop-opacity="1"></stop><stop offset="85.55555555555554%" stop-color="#131313" stop-opacity="1"></stop></linearGradient></defs><defs><linearGradient id="grad2_0" x1="0%" y1="0%" x2="56.3%" y2="100%"><stop offset="14.444444444444446%" stop-color="#ffbd59" stop-opacity="1"></stop><stop offset="85.55555555555554%" stop-color="#ffbd59" stop-opacity="1"></stop></linearGradient></defs><defs><linearGradient id="grad2_1" x1="0%" y1="0%" x2="56.3%" y2="100%"><stop offset="14.444444444444446%" stop-color="#d9a24f" stop-opacity="1"></stop><stop offset="85.55555555555554%" stop-color="#ffbd59" stop-opacity="1"></stop></linearGradient></defs><defs><linearGradient id="grad2_2" x1="0%" y1="0%" x2="56.3%" y2="100%"><stop offset="14.444444444444446%" stop-color="#d9a24f" stop-opacity="1"></stop><stop offset="85.55555555555554%" stop-color="#b48745" stop-opacity="1"></stop></linearGradient></defs><defs><linearGradient id="grad2_3" x1="0%" y1="0%" x2="56.3%" y2="100%"><stop offset="14.444444444444446%" stop-color="#916e3b" stop-opacity="1"></stop><stop offset="85.55555555555554%" stop-color="#b48745" stop-opacity="1"></stop></linearGradient></defs><defs><linearGradient id="grad2_4" x1="0%" y1="0%" x2="56.3%" y2="100%"><stop offset="14.444444444444446%" stop-color="#916e3b" stop-opacity="1"></stop><stop offset="85.55555555555554%" stop-color="#6f5531" stop-opacity="1"></stop></linearGradient></defs><defs><linearGradient id="grad2_5" x1="0%" y1="0%" x2="56.3%" y2="100%"><stop offset="14.444444444444446%" stop-color="#4f3e27" stop-opacity="1"></stop><stop offset="85.55555555555554%" stop-color="#6f5531" stop-opacity="1"></stop></linearGradient></defs><defs><linearGradient id="grad2_6" x1="0%" y1="0%" x2="56.3%" y2="100%"><stop offset="14.444444444444446%" stop-color="#4f3e27" stop-opacity="1"></stop><stop offset="85.55555555555554%" stop-color="#30281d" stop-opacity="1"></stop></linearGradient></defs><defs><linearGradient id="grad2_7" x1="0%" y1="0%" x2="56.3%" y2="100%"><stop offset="14.444444444444446%" stop-color="#131313" stop-opacity="1"></stop><stop offset="85.55555555555554%" stop-color="#30281d" stop-opacity="1"></stop></linearGradient></defs><g transform="translate(960, 0)"><path d="M0 540C-95.1 526.3 -190.3 512.6 -270 467.7C-349.7 422.7 -414 346.6 -456.4 263.5C-498.8 180.4 -519.4 90.2 -540 0L0 0Z" fill="#221d18"></path><path d="M0 472.5C-83.3 460.5 -166.5 448.5 -236.2 409.2C-306 369.9 -362.2 303.3 -399.3 230.6C-436.5 157.8 -454.5 78.9 -472.5 0L0 0Z" fill="#3f3322"></path><path d="M0 405C-71.4 394.7 -142.7 384.4 -202.5 350.7C-262.3 317.1 -310.5 260 -342.3 197.6C-374.1 135.3 -389.6 67.6 -405 0L0 0Z" fill="#5f492c"></path><path d="M0 337.5C-59.5 328.9 -118.9 320.4 -168.7 292.3C-218.6 264.2 -258.7 216.7 -285.2 164.7C-311.8 112.7 -324.6 56.4 -337.5 0L0 0Z" fill="#806136"></path><path d="M0 270C-47.6 263.1 -95.1 256.3 -135 233.8C-174.9 211.4 -207 173.3 -228.2 131.8C-249.4 90.2 -259.7 45.1 -270 0L0 0Z" fill="#a37a40"></path><path d="M0 202.5C-35.7 197.4 -71.4 192.2 -101.2 175.4C-131.1 158.5 -155.2 130 -171.1 98.8C-187.1 67.6 -194.8 33.8 -202.5 0L0 0Z" fill="#c7944a"></path><path d="M0 135C-23.8 131.6 -47.6 128.1 -67.5 116.9C-87.4 105.7 -103.5 86.7 -114.1 65.9C-124.7 45.1 -129.9 22.5 -135 0L0 0Z" fill="#ecaf54"></path><path d="M0 67.5C-11.9 65.8 -23.8 64.1 -33.7 58.5C-43.7 52.8 -51.7 43.3 -57 32.9C-62.4 22.5 -64.9 11.3 -67.5 0L0 0Z" fill="#ffbd59"></path></g><g transform="translate(0, 540)"><path d="M0 -540C96.5 -527.1 193.1 -514.2 270 -467.7C346.9 -421.1 404.3 -341 446 -257.5C487.7 -174 513.9 -87 540 0L0 0Z" fill="#221d18"></path><path d="M0 -472.5C84.5 -461.2 168.9 -449.9 236.2 -409.2C303.6 -368.5 353.7 -298.4 390.3 -225.3C426.8 -152.2 449.6 -76.1 472.5 0L0 0Z" fill="#3f3322"></path><path d="M0 -405C72.4 -395.3 144.8 -385.6 202.5 -350.7C260.2 -315.9 303.2 -255.8 334.5 -193.1C365.8 -130.5 385.4 -65.2 405 0L0 0Z" fill="#5f492c"></path><path d="M0 -337.5C60.3 -329.4 120.7 -321.4 168.7 -292.3C216.8 -263.2 252.7 -213.2 278.8 -160.9C304.8 -108.7 321.2 -54.4 337.5 0L0 0Z" fill="#806136"></path><path d="M0 -270C48.3 -263.5 96.5 -257.1 135 -233.8C173.5 -210.6 202.1 -170.5 223 -128.8C243.9 -87 256.9 -43.5 270 0L0 0Z" fill="#a37a40"></path><path d="M0 -202.5C36.2 -197.7 72.4 -192.8 101.2 -175.4C130.1 -157.9 151.6 -127.9 167.3 -96.6C182.9 -65.2 192.7 -32.6 202.5 0L0 0Z" fill="#c7944a"></path><path d="M0 -135C24.1 -131.8 48.3 -128.5 67.5 -116.9C86.7 -105.3 101.1 -85.3 111.5 -64.4C121.9 -43.5 128.5 -21.7 135 0L0 0Z" fill="#ecaf54"></path><path d="M0 -67.5C12.1 -65.9 24.1 -64.3 33.7 -58.5C43.4 -52.6 50.5 -42.6 55.8 -32.2C61 -21.7 64.2 -10.9 67.5 0L0 0Z" fill="#ffbd59"></path></g></svg>